<?xml version="1.0" encoding="utf-8"?>
<!-- Generator: Adobe Illustrator 27.5.0, SVG Export Plug-In . SVG Version: 6.00 Build 0)  -->
<svg version="1.1" id="_x32_" xmlns="http://www.w3.org/2000/svg" xmlns:xlink="http://www.w3.org/1999/xlink" x="0px" y="0px"
	 viewBox="0 0 512 512" style="enable-background:new 0 0 512 512;" xml:space="preserve">
<style type="text/css">
	.st0{fill:#FFFFFF;}
</style>
<g>
	<path class="st0" d="M318,54.5c-72.6-72.6-190.7-72.6-263.4,0s-72.6,190.7,0,263.4s190.7,72.6,263.4,0S390.6,127.1,318,54.5z
		 M285.8,285.6c-55,54.9-144,54.9-198.9,0s-55-143.9,0-198.9s143.9-55,198.9,0S340.7,230.7,285.8,285.6z"/>
	<path class="st0" d="M499.1,450.7L372.8,327.7c-7-6.8-17.9-6.7-24.8,0.2l-20,20c-6.9,6.9-6.9,17.8-0.2,24.8l123.1,126.3
		c13.6,16.5,33.8,17.4,49.4,1.9C516,485.3,515.7,464.5,499.1,450.7z"/>
</g>
</svg>
